<svg width="256" height="256" viewBox="0 0 256 256" fill="none" xmlns="http://www.w3.org/2000/svg">
<rect y="1.13333" width="256" height="253.724" rx="25" fill="#172029"/>
<rect y="1" width="256" height="241" rx="25" fill="#1D2733"/>
<rect x="21" y="25" width="136" height="133" rx="20" fill="#434F5C"/>
<rect x="236" y="22" width="136" height="59" rx="20" transform="rotate(90 236 22)" fill="#434F5C"/>
<rect x="21" y="175" width="74" height="55" rx="20" fill="#434F5C"/>
<rect x="114" y="230" width="55" height="122" rx="20" transform="rotate(-90 114 230)" fill="#3755F9"/>
<g filter="url(#filter0_d_211_2)">
<path d="M82.1902 39.3C93.1902 39.3 102.84 41.45 111.14 45.75C119.54 50.05 125.99 56.2 130.49 64.2C135.09 72.1 137.39 81.3 137.39 91.8C137.39 102.3 135.09 111.5 130.49 119.4C125.99 127.2 119.54 133.25 111.14 137.55C102.84 141.85 93.1902 144 82.1902 144H45.5902V39.3H82.1902ZM81.4402 126.15C92.4402 126.15 100.94 123.15 106.94 117.15C112.94 111.15 115.94 102.7 115.94 91.8C115.94 80.9 112.94 72.4 106.94 66.3C100.94 60.1 92.4402 57 81.4402 57H66.5902V126.15H81.4402Z" fill="white"/>
</g>
<defs>
<filter id="filter0_d_211_2" x="45.5902" y="39.3" width="91.8" height="111.7" filterUnits="userSpaceOnUse" color-interpolation-filters="sRGB">
<feFlood flood-opacity="0" result="BackgroundImageFix"/>
<feColorMatrix in="SourceAlpha" type="matrix" values="0 0 0 0 0 0 0 0 0 0 0 0 0 0 0 0 0 0 127 0" result="hardAlpha"/>
<feOffset dy="7"/>
<feComposite in2="hardAlpha" operator="out"/>
<feColorMatrix type="matrix" values="0 0 0 0 0 0 0 0 0 0 0 0 0 0 0 0 0 0 1 0"/>
<feBlend mode="normal" in2="BackgroundImageFix" result="effect1_dropShadow_211_2"/>
<feBlend mode="normal" in="SourceGraphic" in2="effect1_dropShadow_211_2" result="shape"/>
</filter>
</defs>
</svg>
